<?xml version="1.0" encoding="iso-8859-1"?>
<!-- Generator: Adobe Illustrator 24.0.1, SVG Export Plug-In . SVG Version: 6.00 Build 0)  -->
<svg version="1.1" xmlns="http://www.w3.org/2000/svg" xmlns:xlink="http://www.w3.org/1999/xlink" x="0px" y="0px"
	 viewBox="0 0 222.944 215.25" style="enable-background:new 0 0 222.944 215.25;" xml:space="preserve">
<pattern  y="302.25" width="162" height="162" patternUnits="userSpaceOnUse" id="New_Pattern_2" viewBox="0 -162 162 162" style="overflow:visible;">
	<g>
		<rect y="-162" style="fill:none;" width="162" height="162"/>
		<polygon style="fill:#52575E;" points="0,-162 0,-108 54,-108 		"/>
		<polygon style="fill:#464A4F;" points="54,-162 0,-162 54,-108 		"/>
		<polygon style="fill:#4D5259;" points="108,-162 54,-162 54,-108 		"/>
		<polygon style="fill:#484D54;" points="108,-162 162,-108 162,-162 		"/>
		<polygon style="fill:#4D5259;" points="0,-108 0,-54 54,-108 		"/>
		<polygon style="fill:#4D5259;" points="0,0 54,0 0,-54 		"/>
		<polygon style="fill:#464A4F;" points="54,0 108,0 108,-54 		"/>
		<polygon style="fill:#484D54;" points="162,-54 162,-108 108,-54 		"/>
		<polygon style="fill:#464A4F;" points="108,0 162,0 108,-54 		"/>
		<polygon style="fill:#4D5259;" points="162,0 162,-54 108,-54 		"/>
		<polygon style="fill:#52575E;" points="108,-108 108,-162 54,-108 		"/>
		<polygon style="fill:#52575E;" points="108,-108 162,-108 108,-162 		"/>
		<polygon style="fill:#484D54;" points="54,-108 0,-54 54,-54 		"/>
		<polygon style="fill:#464A4F;" points="0,-54 54,0 54,-54 		"/>
		<polygon style="fill:#484D54;" points="108,-54 108,-108 54,-108 		"/>
		<polygon style="fill:#4D5259;" points="54,-54 108,-54 54,-108 		"/>
		<polygon style="fill:#484D54;" points="54,-54 54,0 108,-54 		"/>
		<polygon style="fill:#4D5259;" points="108,-54 162,-108 108,-108 		"/>
	</g>
</pattern>
<g id="AnalogStick" style="opacity:0.7;">
	<g id="AnalogGreyBackground">
		<polygon style="fill:#36393F;stroke:#000000;stroke-width:0.25;stroke-miterlimit:10;" points="201.549,41.187 145.878,0.125 
			77.066,0.125 21.396,41.187 0.132,107.625 21.396,174.064 77.066,215.125 145.878,215.125 201.549,174.064 222.813,107.625 		"/>
		<pattern  id="SVGID_1_" xlink:href="#New_Pattern_2" patternTransform="matrix(1 0 0 1 72.9899 -113.1352)">
		</pattern>
		<polygon style="fill:url(#SVGID_1_);stroke:#000000;stroke-width:0.25;stroke-miterlimit:10;" points="201.548,41.186 
			145.878,0.125 77.066,0.125 21.395,41.186 0.131,107.625 21.395,174.063 77.066,215.125 145.878,215.125 201.548,174.063 
			222.813,107.625 		"/>
	</g>
</g>
<g id="Layer_1">
</g>
</svg>
