<?xml version="1.0" encoding="iso-8859-1"?>
<!-- Generator: Adobe Illustrator 24.0.1, SVG Export Plug-In . SVG Version: 6.00 Build 0)  -->
<svg version="1.1" xmlns="http://www.w3.org/2000/svg" xmlns:xlink="http://www.w3.org/1999/xlink" x="0px" y="0px"
	 viewBox="0 0 161.835 157.783" style="enable-background:new 0 0 161.835 157.783;" xml:space="preserve">
<pattern  y="244.783" width="162" height="162" patternUnits="userSpaceOnUse" id="New_Pattern_2" viewBox="0 -162 162 162" style="overflow:visible;">
	<g>
		<rect y="-162" style="fill:none;" width="162" height="162"/>
		<polygon style="fill:#52575E;" points="0,-162 0,-108 54,-108 		"/>
		<polygon style="fill:#464A4F;" points="54,-162 0,-162 54,-108 		"/>
		<polygon style="fill:#4D5259;" points="108,-162 54,-162 54,-108 		"/>
		<polygon style="fill:#484D54;" points="108,-162 162,-108 162,-162 		"/>
		<polygon style="fill:#4D5259;" points="0,-108 0,-54 54,-108 		"/>
		<polygon style="fill:#4D5259;" points="0,0 54,0 0,-54 		"/>
		<polygon style="fill:#464A4F;" points="54,0 108,0 108,-54 		"/>
		<polygon style="fill:#484D54;" points="162,-54 162,-108 108,-54 		"/>
		<polygon style="fill:#464A4F;" points="108,0 162,0 108,-54 		"/>
		<polygon style="fill:#4D5259;" points="162,0 162,-54 108,-54 		"/>
		<polygon style="fill:#52575E;" points="108,-108 108,-162 54,-108 		"/>
		<polygon style="fill:#52575E;" points="108,-108 162,-108 108,-162 		"/>
		<polygon style="fill:#484D54;" points="54,-108 0,-54 54,-54 		"/>
		<polygon style="fill:#464A4F;" points="0,-54 54,0 54,-54 		"/>
		<polygon style="fill:#484D54;" points="108,-54 108,-108 54,-108 		"/>
		<polygon style="fill:#4D5259;" points="54,-54 108,-54 54,-108 		"/>
		<polygon style="fill:#484D54;" points="54,-54 54,0 108,-54 		"/>
		<polygon style="fill:#4D5259;" points="108,-54 162,-108 108,-108 		"/>
	</g>
</pattern>
<g id="DashButtonBackground" style="opacity:0.75;">
	
		<pattern  id="SVGID_1_" xlink:href="#New_Pattern_2" patternTransform="matrix(1 0 0 1 -27.8455 -122.8745)"  style="opacity:0.75;">
	</pattern>
	<polygon style="fill:url(#SVGID_1_);" points="80.917,0.006 16.027,31.256 0,101.473 44.906,157.783 116.929,157.783 
		161.835,101.473 145.808,31.256 	"/>
	
		<pattern  id="SVGID_2_" xlink:href="#New_Pattern_2" patternTransform="matrix(0.7071 0 0 0.7071 -225.0903 -552.0624)"  style="opacity:0.75;">
	</pattern>
	<polygon style="fill:url(#SVGID_2_);" points="80.917,0 16.027,31.25 0,101.467 44.906,157.777 116.929,157.777 161.835,101.467 
		145.808,31.25 	"/>
</g>
<g id="Layer_1">
</g>
</svg>
