<?xml version="1.0" encoding="iso-8859-1"?>
<!-- Generator: Adobe Illustrator 24.0.1, SVG Export Plug-In . SVG Version: 6.00 Build 0)  -->
<svg version="1.1" xmlns="http://www.w3.org/2000/svg" xmlns:xlink="http://www.w3.org/1999/xlink" x="0px" y="0px"
	 viewBox="0 0 108.273 99.262" style="enable-background:new 0 0 108.273 99.262;" xml:space="preserve">
<pattern  y="186.262" width="162" height="162" patternUnits="userSpaceOnUse" id="New_Pattern_2" viewBox="0 -162 162 162" style="overflow:visible;">
	<g>
		<rect y="-162" style="fill:none;" width="162" height="162"/>
		<polygon style="fill:#52575E;" points="0,-162 0,-108 54,-108 		"/>
		<polygon style="fill:#464A4F;" points="54,-162 0,-162 54,-108 		"/>
		<polygon style="fill:#4D5259;" points="108,-162 54,-162 54,-108 		"/>
		<polygon style="fill:#484D54;" points="108,-162 162,-108 162,-162 		"/>
		<polygon style="fill:#4D5259;" points="0,-108 0,-54 54,-108 		"/>
		<polygon style="fill:#4D5259;" points="0,0 54,0 0,-54 		"/>
		<polygon style="fill:#464A4F;" points="54,0 108,0 108,-54 		"/>
		<polygon style="fill:#484D54;" points="162,-54 162,-108 108,-54 		"/>
		<polygon style="fill:#464A4F;" points="108,0 162,0 108,-54 		"/>
		<polygon style="fill:#4D5259;" points="162,0 162,-54 108,-54 		"/>
		<polygon style="fill:#52575E;" points="108,-108 108,-162 54,-108 		"/>
		<polygon style="fill:#52575E;" points="108,-108 162,-108 108,-162 		"/>
		<polygon style="fill:#484D54;" points="54,-108 0,-54 54,-54 		"/>
		<polygon style="fill:#464A4F;" points="0,-54 54,0 54,-54 		"/>
		<polygon style="fill:#484D54;" points="108,-54 108,-108 54,-108 		"/>
		<polygon style="fill:#4D5259;" points="54,-54 108,-54 54,-108 		"/>
		<polygon style="fill:#484D54;" points="54,-54 54,0 108,-54 		"/>
		<polygon style="fill:#4D5259;" points="108,-54 162,-108 108,-108 		"/>
	</g>
</pattern>
<g id="JumpButtonBack" style="opacity:0.75;">
	<polygon style="fill:#36393F;stroke:#000000;stroke-width:0.25;stroke-miterlimit:10;" points="54.136,0.137 10.832,19.745 
		0.136,63.805 30.104,99.137 78.169,99.137 108.136,63.805 97.441,19.745 	"/>
	
		<pattern  id="SVGID_1_" xlink:href="#New_Pattern_2" patternTransform="matrix(0.4961 0 0 0.4961 -2309.8618 -2622.551)"  style="opacity:0.75;">
	</pattern>
	<polygon style="fill:url(#SVGID_1_);stroke:#000000;stroke-width:0.25;stroke-miterlimit:10;" points="54.137,0.137 10.832,19.745 
		0.137,63.805 30.104,99.137 78.169,99.137 108.137,63.805 97.441,19.745 	"/>
</g>
<g id="Layer_1">
</g>
</svg>
