<?xml version="1.0" encoding="iso-8859-1"?>
<!-- Generator: Adobe Illustrator 24.0.1, SVG Export Plug-In . SVG Version: 6.00 Build 0)  -->
<svg version="1.1" xmlns="http://www.w3.org/2000/svg" xmlns:xlink="http://www.w3.org/1999/xlink" x="0px" y="0px"
	 viewBox="0 0 214.921 209.678" style="enable-background:new 0 0 214.921 209.678;" xml:space="preserve">
<pattern  y="296.678" width="162" height="162" patternUnits="userSpaceOnUse" id="New_Pattern_3" viewBox="0 -162 162 162" style="overflow:visible;">
	<g>
		<rect y="-162" style="fill:none;" width="162" height="162"/>
		<polygon style="fill:#9BA7B2;" points="0,-162 0,-108 54,-108 		"/>
		<polygon style="fill:#A6B3BF;" points="54,-162 0,-162 54,-108 		"/>
		<polygon style="fill:#A6B3BF;" points="108,-162 54,-162 54,-108 		"/>
		<polygon style="fill:#A6B3BF;" points="108,-162 162,-108 162,-162 		"/>
		<polygon style="fill:#A6B3BF;" points="0,-108 0,-54 54,-108 		"/>
		<polygon style="fill:#C7D7E5;" points="0,0 54,0 0,-54 		"/>
		<polygon style="fill:#B4C1D1;" points="54,0 108,0 108,-54 		"/>
		<polygon style="fill:#B4C1D1;" points="162,-54 162,-108 108,-54 		"/>
		<polygon style="fill:#B4C1D1;" points="108,0 162,0 108,-54 		"/>
		<polygon style="fill:#C7D7E5;" points="162,0 162,-54 108,-54 		"/>
		<polygon style="fill:#B4C1D1;" points="108,-108 108,-162 54,-108 		"/>
		<polygon style="fill:#B4C1D1;" points="108,-108 162,-108 108,-162 		"/>
		<polygon style="fill:#B4C1D1;" points="54,-108 0,-54 54,-54 		"/>
		<polygon style="fill:#B4C1D1;" points="0,-54 54,0 54,-54 		"/>
		<polygon style="fill:#B4C1D1;" points="108,-54 108,-108 54,-108 		"/>
		<polygon style="fill:#BCCAD8;" points="54,-54 108,-54 54,-108 		"/>
		<polygon style="fill:#C7D7E5;" points="54,-54 54,0 108,-54 		"/>
		<polygon style="fill:#BCCAD8;" points="108,-54 162,-108 108,-108 		"/>
	</g>
</pattern>
<g id="Layer_29">
	<pattern  id="SVGID_1_" xlink:href="#New_Pattern_3" patternTransform="matrix(1 0 0 0.6334 234.6846 -3247.5947)">
	</pattern>
	<polygon style="opacity:0.2;fill:url(#SVGID_1_);stroke:#8E8E8E;stroke-miterlimit:10;" points="107.168,0.579 91.24,9.898 
		123.095,9.898 	"/>
	
		<pattern  id="SVGID_2_" xlink:href="#New_Pattern_3" patternTransform="matrix(6.123234e-17 1 -0.6334 3.878244e-17 -13602.5967 -313.9146)">
	</pattern>
	<polygon style="opacity:0.2;fill:url(#SVGID_2_);stroke:#8E8E8E;stroke-miterlimit:10;" points="214.342,104.247 205.023,88.32 
		205.023,120.174 	"/>
	<pattern  id="SVGID_3_" xlink:href="#New_Pattern_3" patternTransform="matrix(-1 0 0 -0.6334 -16544.3496 -14153.5186)">
	</pattern>
	<polygon style="opacity:0.2;fill:url(#SVGID_3_);stroke:#8E8E8E;stroke-miterlimit:10;" points="107.168,209.099 123.095,199.78 
		91.241,199.78 	"/>
	
		<pattern  id="SVGID_4_" xlink:href="#New_Pattern_3" patternTransform="matrix(-6.123234e-17 -1 0.6334 -3.878244e-17 -2599.311 -17255.418)">
	</pattern>
	<polygon style="opacity:0.2;fill:url(#SVGID_4_);stroke:#8E8E8E;stroke-miterlimit:10;" points="0.579,103.778 9.898,119.705 
		9.898,87.851 	"/>
</g>
<g id="Layer_1">
</g>
</svg>
