<?xml version="1.0" encoding="iso-8859-1"?>
<!-- Generator: Adobe Illustrator 24.0.1, SVG Export Plug-In . SVG Version: 6.00 Build 0)  -->
<svg version="1.1" xmlns="http://www.w3.org/2000/svg" xmlns:xlink="http://www.w3.org/1999/xlink" x="0px" y="0px"
	 viewBox="0 0 35.544 10.398" style="enable-background:new 0 0 35.544 10.398;" xml:space="preserve">
<pattern  y="97.398" width="162" height="162" patternUnits="userSpaceOnUse" id="New_Pattern_3" viewBox="0 -162 162 162" style="overflow:visible;">
	<g>
		<rect y="-162" style="fill:none;" width="162" height="162"/>
		<polygon style="fill:#9BA7B2;" points="0,-162 0,-108 54,-108 		"/>
		<polygon style="fill:#A6B3BF;" points="54,-162 0,-162 54,-108 		"/>
		<polygon style="fill:#A6B3BF;" points="108,-162 54,-162 54,-108 		"/>
		<polygon style="fill:#A6B3BF;" points="108,-162 162,-108 162,-162 		"/>
		<polygon style="fill:#A6B3BF;" points="0,-108 0,-54 54,-108 		"/>
		<polygon style="fill:#C7D7E5;" points="0,0 54,0 0,-54 		"/>
		<polygon style="fill:#B4C1D1;" points="54,0 108,0 108,-54 		"/>
		<polygon style="fill:#B4C1D1;" points="162,-54 162,-108 108,-54 		"/>
		<polygon style="fill:#B4C1D1;" points="108,0 162,0 108,-54 		"/>
		<polygon style="fill:#C7D7E5;" points="162,0 162,-54 108,-54 		"/>
		<polygon style="fill:#B4C1D1;" points="108,-108 108,-162 54,-108 		"/>
		<polygon style="fill:#B4C1D1;" points="108,-108 162,-108 108,-162 		"/>
		<polygon style="fill:#B4C1D1;" points="54,-108 0,-54 54,-54 		"/>
		<polygon style="fill:#B4C1D1;" points="0,-54 54,0 54,-54 		"/>
		<polygon style="fill:#B4C1D1;" points="108,-54 108,-108 54,-108 		"/>
		<polygon style="fill:#BCCAD8;" points="54,-54 108,-54 54,-108 		"/>
		<polygon style="fill:#C7D7E5;" points="54,-54 54,0 108,-54 		"/>
		<polygon style="fill:#BCCAD8;" points="108,-54 162,-108 108,-108 		"/>
	</g>
</pattern>
<g id="UpButton">
	<pattern  id="SVGID_1_" xlink:href="#New_Pattern_3" patternTransform="matrix(1 0 0 0.6334 234.2889 -3213.8003)">
	</pattern>
	<polygon style="opacity:0.2;fill:url(#SVGID_1_);stroke:#8E8E8E;stroke-miterlimit:10;" points="17.772,0.579 1.845,9.898 
		33.699,9.898 	"/>
</g>
<g id="Layer_1">
</g>
</svg>
